<?xml version="1.0" encoding="UTF-8"?>
<svg id="Lager_1" data-name="Lager 1" xmlns="http://www.w3.org/2000/svg" viewBox="0 0 48 45.38">
  <defs>
    <style>
      .cls-1 {
        fill: #fff;
      }
    </style>
  </defs>
  <g id="Expanded">
    <g>
      <path class="cls-1" d="M42,45.38h-14v-13h-8v13H6V24.38c0-.55,.45-1,1-1s1,.45,1,1v19h10v-13h12v13h10V25.38c0-.55,.45-1,1-1s1,.45,1,1v20Z"/>
      <path class="cls-1" d="M47,24.38c-.25,0-.5-.09-.69-.28L24,2.77,1.69,24.11c-.4,.38-1.03,.37-1.41-.03-.38-.4-.37-1.03,.03-1.41L24,0l23.69,22.66c.4,.38,.41,1.01,.03,1.41-.2,.21-.46,.31-.72,.31Z"/>
      <path class="cls-1" d="M39,12.38c-.55,0-1-.45-1-1V5.38h-6c-.55,0-1-.45-1-1s.45-1,1-1h8V11.38c0,.55-.45,1-1,1Z"/>
    </g>
  </g>
</svg>